<?xml version="1.0" encoding="UTF-8"?>
<svg xmlns="http://www.w3.org/2000/svg" xmlns:xlink="http://www.w3.org/1999/xlink" width="16pt" height="10pt" viewBox="0 0 16 10" version="1.1">
<g id="surface1">
<path fill="#000000" style=" stroke:none;fill-rule:evenodd;fill-opacity:1;" d="M 6.632812 10 L 9.367188 10 L 9.367188 5 L 9.371094 5 C 9.367188 4.945312 9.367188 4.894531 9.367188 4.839844 C 9.367188 3.726562 10.238281 2.824219 11.316406 2.824219 C 12.394531 2.824219 13.269531 3.726562 13.269531 4.839844 C 13.269531 4.894531 13.265625 4.945312 13.261719 5 L 13.269531 5 L 13.269531 10 L 16 10 L 16 4.917969 C 16 4.890625 16 4.867188 16 4.839844 C 16 2.167969 13.902344 0 11.316406 0 C 10.019531 0 8.847656 0.542969 8 1.421875 C 7.152344 0.542969 5.980469 0 4.683594 0 C 2.097656 0 0 2.167969 0 4.839844 C 0 4.867188 0 4.890625 0 4.917969 L 0 10 L 2.730469 10 L 2.730469 5 L 2.738281 5 C 2.734375 4.945312 2.730469 4.894531 2.730469 4.839844 C 2.730469 3.726562 3.605469 2.824219 4.683594 2.824219 C 5.761719 2.824219 6.632812 3.726562 6.632812 4.839844 C 6.632812 4.894531 6.632812 4.945312 6.628906 5 L 6.632812 5 Z M 6.632812 10 "/>
</g>
</svg>
